<svg xmlns="http://www.w3.org/2000/svg" xmlns:xlink="http://www.w3.org/1999/xlink" viewBox="0,0,256,256" width="100px" height="100px" fill-rule="nonzero"><g fill="#ffffff" fill-rule="nonzero" stroke="none" stroke-width="1" stroke-linecap="butt" stroke-linejoin="miter" stroke-miterlimit="10" stroke-dasharray="" stroke-dashoffset="0" font-family="none" font-weight="none" font-size="none" text-anchor="none" style="mix-blend-mode: normal"><g transform="scale(5.12,5.12)"><path d="M6,5c-2.19922,0 -4,1.80078 -4,4v32c0,2.19922 1.80078,4 4,4h38c2.19922,0 4,-1.80078 4,-4v-32c0,-2.19922 -1.80078,-4 -4,-4zM6,7h38c1.11719,0 2,0.88281 2,2v32c0,1.11719 -0.88281,2 -2,2h-38c-1.11719,0 -2,-0.88281 -2,-2v-32c0,-1.11719 0.88281,-2 2,-2zM6.8125,9c-0.47656,0.08984 -0.82031,0.51172 -0.8125,1v30c0,0.55078 0.44922,1 1,1h36c0.03125,0 0.0625,0 0.09375,0c0.51563,-0.04687 0.91016,-0.48047 0.90625,-1v-30c0,-0.55078 -0.44922,-1 -1,-1h-36c-0.03125,0 -0.0625,0 -0.09375,0c-0.03125,0 -0.0625,0 -0.09375,0zM8,11h34v28h-4v-2h-9v2h-21zM25,17c-2.19922,0 -4,1.80078 -4,4c0,2.19922 1.80078,4 4,4c2.19922,0 4,-1.80078 4,-4c0,-2.19922 -1.80078,-4 -4,-4zM25,19c1.11719,0 2,0.88281 2,2c0,1.11719 -0.88281,2 -2,2c-1.11719,0 -2,-0.88281 -2,-2c0,-1.11719 0.88281,-2 2,-2zM17,21c-1.64453,0 -3,1.35547 -3,3c0,1.64453 1.35547,3 3,3c1.64453,0 3,-1.35547 3,-3c0,-1.64453 -1.35547,-3 -3,-3zM33,21c-1.64453,0 -3,1.35547 -3,3c0,1.64453 1.35547,3 3,3c1.64453,0 3,-1.35547 3,-3c0,-1.64453 -1.35547,-3 -3,-3zM17,23c0.5625,0 1,0.4375 1,1c0,0.5625 -0.4375,1 -1,1c-0.5625,0 -1,-0.4375 -1,-1c0,-0.5625 0.4375,-1 1,-1zM33,23c0.5625,0 1,0.4375 1,1c0,0.5625 -0.4375,1 -1,1c-0.5625,0 -1,-0.4375 -1,-1c0,-0.5625 0.4375,-1 1,-1zM25,26c-2.72656,0 -4.91797,1.26172 -5.96875,2c-0.60156,-0.19922 -1.28516,-0.34375 -2.03125,-0.34375c-2.70703,0 -4.65625,1.78125 -4.65625,1.78125l-0.34375,0.3125v3.25h26v-3.25l-0.34375,-0.3125c0,0 -1.94922,-1.78125 -4.65625,-1.78125c-0.74609,0 -1.42969,0.14453 -2.03125,0.34375c-1.05078,-0.73828 -3.24219,-2 -5.96875,-2zM25,28c2.61328,0 4.55078,1.45703 5,1.8125v1.1875h-10v-1.1875c0.44922,-0.35547 2.38672,-1.8125 5,-1.8125zM17,29.65625c0.34766,0 0.67578,0.07422 1,0.15625v1.1875h-4v-0.28125c0.40625,-0.30078 1.50781,-1.0625 3,-1.0625zM33,29.65625c1.49219,0 2.59375,0.76172 3,1.0625v0.28125h-4v-1.1875c0.32422,-0.08203 0.65234,-0.15625 1,-0.15625z"></path></g></g></svg>